<svg xmlns="http://www.w3.org/2000/svg" viewBox="0 0 64 64"><g stroke="#3b2a20" stroke-width="2.4" stroke-linejoin="round" stroke-linecap="round"><path d="M8 62 C8 47 18 40 32 40 C46 40 56 47 56 62 Z" fill="#3f7fbf"/><path d="M26 41 L32 52 L38 41" fill="none" stroke="#ffffff" stroke-width="2"/><rect x="28.5" y="51" width="7" height="8" rx="1" fill="#ffffff" stroke-width="1.6"/><ellipse cx="32" cy="25" rx="10" ry="11" fill="#c68642"/><path d="M22 24 C21 15 26 11 32 11 C38 11 43 15 42 24 C39 19 35 18 32 18 C29 18 25 19 22 24 Z" fill="#2b1d14"/><circle cx="28.2" cy="26" r="1.2" fill="#2b1d14" stroke="none"/><circle cx="35.8" cy="26" r="1.2" fill="#2b1d14" stroke="none"/><path d="M29 30.5 Q32 32.6 35 30.5" fill="none" stroke-width="1.6"/><rect x="40" y="44" width="15" height="18" rx="1.5" fill="#c9673a" transform="rotate(-10 47 53)"/><path d="M44 49 H52 M44 53 H52" fill="none" stroke="#fbf3e2" stroke-width="1.6" transform="rotate(-10 47 53)"/></g></svg>