<svg xmlns="http://www.w3.org/2000/svg" viewBox="0 0 64 64"><g stroke="#3b2a20" stroke-width="2.4" stroke-linejoin="round" stroke-linecap="round"><path d="M8 62 C8 47 18 40 32 40 C46 40 56 47 56 62 Z" fill="#d6336c"/><path d="M18 31 C16 15 24 8 32 8 C40 8 48 15 46 31 L47 44 C42 41 38 40 32 40 C26 40 22 41 17 44 Z" fill="#d6336c"/><path d="M20 44 C26 50 38 52 46 62" fill="none" stroke="#f4b63d" stroke-width="3.6"/><ellipse cx="32" cy="27" rx="9.5" ry="10.5" fill="#c68642"/><path d="M22.6 24 C23 17 27 15 32 15 C37 15 41 17 41.4 24 C38 20 35 19.5 32 21 C29 19.5 26 20 22.6 24 Z" fill="#2b1d14"/><path d="M21 31 C19 18 25 11 32 11 C39 11 45 18 43 31" fill="none" stroke="#f4b63d" stroke-width="2.4"/><circle cx="28.2" cy="28" r="1.2" fill="#2b1d14" stroke="none"/><circle cx="35.8" cy="28" r="1.2" fill="#2b1d14" stroke="none"/><path d="M29 32.5 Q32 34.6 35 32.5" fill="none" stroke-width="1.6"/></g></svg>