<svg xmlns="http://www.w3.org/2000/svg" viewBox="0 0 64 64"><g stroke="#3b2a20" stroke-width="2.4" stroke-linejoin="round" stroke-linecap="round"><rect x="6" y="47" width="14" height="11" fill="#f4b63d"/><path d="M6 52 H20" stroke="#c98a14" stroke-width="1.5"/><path d="M6 57 H20" stroke="#c98a14" stroke-width="1.5"/><ellipse cx="13.0" cy="47" rx="7.0" ry="2.6" fill="#ffd77a"/><rect x="25" y="37" width="14" height="21" fill="#f4b63d"/><path d="M25 42 H39" stroke="#c98a14" stroke-width="1.5"/><path d="M25 47 H39" stroke="#c98a14" stroke-width="1.5"/><path d="M25 52 H39" stroke="#c98a14" stroke-width="1.5"/><path d="M25 57 H39" stroke="#c98a14" stroke-width="1.5"/><ellipse cx="32.0" cy="37" rx="7.0" ry="2.6" fill="#ffd77a"/><rect x="44" y="27" width="14" height="31" fill="#f4b63d"/><path d="M44 32 H58" stroke="#c98a14" stroke-width="1.5"/><path d="M44 37 H58" stroke="#c98a14" stroke-width="1.5"/><path d="M44 42 H58" stroke="#c98a14" stroke-width="1.5"/><path d="M44 47 H58" stroke="#c98a14" stroke-width="1.5"/><path d="M44 52 H58" stroke="#c98a14" stroke-width="1.5"/><path d="M44 57 H58" stroke="#c98a14" stroke-width="1.5"/><ellipse cx="51.0" cy="27" rx="7.0" ry="2.6" fill="#ffd77a"/><path d="M51 27 V14" fill="none" stroke="#2e7d32" stroke-width="2.6"/><path d="M51 21 C44 21 41 15 43 11 C48 12 51 16 51 21 Z" fill="#7cc35a"/><path d="M51 17 C57 16 60 10 58 6 C53 7 51 12 51 17 Z" fill="#7cc35a"/></g></svg>